<svg width="74" height="74" viewBox="0 0 74 74" fill="none" xmlns="http://www.w3.org/2000/svg">
<path d="M36.9998 1C17.118 1 1 17.1184 1 37.0006C1 56.8819 17.1181 73.0003 36.9998 73.0003C56.8818 73.0003 73 56.8819 73 37.0006C73 17.1184 56.8818 1 36.9998 1Z" fill="white" stroke="url(#paint0_linear_1979_213)" stroke-width="2"/>
<path d="M25 46H22V26H38" stroke="black" stroke-width="2" stroke-miterlimit="10" stroke-linecap="square"/>
<path d="M49 26H52V46H32" stroke="black" stroke-width="2" stroke-miterlimit="10" stroke-linecap="square"/>
<path d="M32 52H42" stroke="black" stroke-width="2" stroke-miterlimit="10" stroke-linecap="square"/>
<path d="M48 38H39C38.448 38 38 37.552 38 37V24C38 23.448 38.448 23 39 23H48C48.552 23 49 23.448 49 24V37C49 37.552 48.552 38 48 38Z" stroke="#2866DC" stroke-width="2" stroke-miterlimit="10" stroke-linecap="square"/>
<path d="M43 35H44" stroke="#2866DC" stroke-width="2" stroke-miterlimit="10" stroke-linecap="square"/>
<path d="M31 49H26C25.448 49 25 48.552 25 48V38C25 37.448 25.448 37 26 37H31C31.552 37 32 37.448 32 38V48C32 48.552 31.552 49 31 49Z" stroke="#2866DC" stroke-width="2" stroke-miterlimit="10" stroke-linecap="square"/>
<path d="M28 46H29" stroke="#2866DC" stroke-width="2" stroke-miterlimit="10" stroke-linecap="square"/>
<path d="M39 52V50H35V52" stroke="black" stroke-width="2" stroke-miterlimit="10" stroke-linecap="square"/>
<defs>
<linearGradient id="paint0_linear_1979_213" x1="14.5" y1="2" x2="90.5" y2="127.5" gradientUnits="userSpaceOnUse">
<stop stop-color="#4958FA"/>
<stop offset="1" stop-color="#AD72B7"/>
</linearGradient>
</defs>
</svg>
