<svg width="156" height="156" viewBox="0 0 156 156" fill="none" xmlns="http://www.w3.org/2000/svg">
<path opacity="0.5" fill-rule="evenodd" clip-rule="evenodd" d="M78.8424 1.06066L77.7817 0L76.7211 1.06066L59.6604 18.1213H63.9031L77.7817 4.24264L91.6604 18.1213H95.9031L78.8424 1.06066ZM137.782 60V64.2426L151.321 77.7817L137.782 91.3209V95.5635L154.503 78.8424L155.563 77.7817L154.503 76.7211L137.782 60ZM95.2239 138.121H90.9813L77.7817 151.321L64.5822 138.121H60.3396L76.7211 154.503L77.7817 155.563L78.8424 154.503L95.2239 138.121ZM17.7817 95.5635V91.3208L4.24264 77.7817L17.7817 64.2426V60L1.06066 76.7211L0 77.7817L1.06066 78.8424L17.7817 95.5635Z" fill="white"/>
<path fill-rule="evenodd" clip-rule="evenodd" d="M61 65.1604C58.791 65.1604 57 63.3694 57 61.1604C57 58.9514 58.791 57.1604 61 57.1604C63.209 57.1604 65 58.9514 65 61.1604C65 63.3694 63.209 65.1604 61 65.1604Z" stroke="white" stroke-width="3" stroke-linecap="square"/>
<path d="M64 95.1604H58L57 84.1604L54 83.1604V74.1604C54 71.9514 55.791 70.1604 58 70.1604H64C65.454 70.1604 66.727 70.9374 67.427 72.0974" stroke="white" stroke-width="3"/>
<path fill-rule="evenodd" clip-rule="evenodd" d="M91 65.1604C93.209 65.1604 95 63.3694 95 61.1604C95 58.9514 93.209 57.1604 91 57.1604C88.791 57.1604 87 58.9514 87 61.1604C87 63.3694 88.791 65.1604 91 65.1604Z" stroke="white" stroke-width="3" stroke-linecap="square"/>
<path d="M88 95.1604H94L95 84.1604L98 83.1604V74.1604C98 71.9514 96.209 70.1604 94 70.1604H88C86.546 70.1604 85.273 70.9374 84.573 72.0974" stroke="white" stroke-width="3"/>
<path fill-rule="evenodd" clip-rule="evenodd" d="M76 66.1604C72.686 66.1604 70 63.4744 70 60.1604C70 56.8464 72.686 54.1604 76 54.1604C79.314 54.1604 82 56.8464 82 60.1604C82 63.4744 79.314 66.1604 76 66.1604Z" stroke="white" stroke-width="3" stroke-linecap="square"/>
<path fill-rule="evenodd" clip-rule="evenodd" d="M81 98.1604H71L70 86.1604L66 85.1604V75.1604C66 72.9514 67.791 71.1604 70 71.1604H82C84.209 71.1604 86 72.9514 86 75.1604V85.1604L82 86.1604L81 98.1604Z" stroke="white" stroke-width="3" stroke-linecap="square"/>
</svg>
