<svg width="156" height="156" viewBox="0 0 156 156" fill="none" xmlns="http://www.w3.org/2000/svg">
<path opacity="0.5" fill-rule="evenodd" clip-rule="evenodd" d="M78.8424 1.06066L77.7817 0L76.7211 1.06066L59.6604 18.1213H63.9031L77.7817 4.24264L91.6604 18.1213H95.9031L78.8424 1.06066ZM137.782 60V64.2426L151.321 77.7817L137.782 91.3209V95.5635L154.503 78.8424L155.563 77.7817L154.503 76.7211L137.782 60ZM95.2239 138.121H90.9813L77.7817 151.321L64.5822 138.121H60.3396L76.7211 154.503L77.7817 155.563L78.8424 154.503L95.2239 138.121ZM17.7817 95.5635V91.3208L4.24264 77.7817L17.7817 64.2426V60L1.06066 76.7211L0 77.7817L1.06066 78.8424L17.7817 95.5635Z" fill="white"/>
<path d="M85.8701 57.8474L97.7641 69.7404" stroke="white" stroke-width="3"/>
<path d="M81.2071 60.4355C75.3651 57.9195 68.3291 59.0465 63.5581 63.8185C62.5791 64.7975 61.7721 65.8785 61.1001 67.0175L67.9551 73.8725" stroke="white" stroke-width="3"/>
<path d="M95.185 74.3645C97.764 80.2285 96.644 87.3005 91.842 92.1025C90.863 93.0815 89.782 93.8885 88.643 94.5605L81.759 87.6765" stroke="white" stroke-width="3"/>
<path fill-rule="evenodd" clip-rule="evenodd" d="M76.2849 90.6885L64.9709 79.3745C64.9709 79.3745 74.6349 55.3325 101.741 53.9185C100.209 80.9065 76.2849 90.6885 76.2849 90.6885Z" stroke="white" stroke-width="3" stroke-linecap="square"/>
<path fill-rule="evenodd" clip-rule="evenodd" d="M58 92.6604C58 89.8994 60.239 87.6604 63 87.6604C65.761 87.6604 68 89.8994 68 92.6604C68 95.4214 65.761 97.6604 63 97.6604C61.875 97.6604 58 97.6604 58 97.6604C58 97.6604 58 94.2974 58 92.6604Z" stroke="white" stroke-width="3" stroke-linecap="square"/>
<path d="M83 76.6604C85.2091 76.6604 87 74.8695 87 72.6604C87 70.4513 85.2091 68.6604 83 68.6604C80.7909 68.6604 79 70.4513 79 72.6604C79 74.8695 80.7909 76.6604 83 76.6604Z" stroke="white" stroke-width="3" stroke-linecap="square"/>
</svg>
