<svg width="156" height="156" viewBox="0 0 156 156" fill="none" xmlns="http://www.w3.org/2000/svg">
<path opacity="0.5" fill-rule="evenodd" clip-rule="evenodd" d="M78.8424 1.06066L77.7817 0L76.7211 1.06066L59.6604 18.1213H63.9031L77.7817 4.24264L91.6604 18.1213H95.9031L78.8424 1.06066ZM137.782 60V64.2426L151.321 77.7817L137.782 91.3209V95.5635L154.503 78.8424L155.563 77.7817L154.503 76.7211L137.782 60ZM95.2239 138.121H90.9813L77.7817 151.321L64.5822 138.121H60.3396L76.7211 154.503L77.7817 155.563L78.8424 154.503L95.2239 138.121ZM17.7817 95.5635V91.3208L4.24264 77.7817L17.7817 64.2426V60L1.06066 76.7211L0 77.7817L1.06066 78.8424L17.7817 95.5635Z" fill="white"/>
<path d="M86 68.1604V57.1604H62V74.1604" stroke="white" stroke-width="3" stroke-linecap="square"/>
<path d="M68 97.1604H80" stroke="white" stroke-width="3" stroke-linecap="square"/>
<path d="M74 53.1604V57.1604" stroke="white" stroke-width="3" stroke-linecap="square"/>
<path d="M68 79.1604H52V97.1604H68V79.1604Z" stroke="white" stroke-width="3" stroke-linecap="square"/>
<path d="M96 73.1604H80V97.1604H96V73.1604Z" stroke="white" stroke-width="3" stroke-linecap="square"/>
<path d="M86 79.1604H90" stroke="white" stroke-width="3" stroke-linecap="square"/>
<path d="M86 85.1604H90" stroke="white" stroke-width="3" stroke-linecap="square"/>
<path d="M86 91.1604H90" stroke="white" stroke-width="3" stroke-linecap="square"/>
<path d="M58 85.1604H62" stroke="white" stroke-width="3" stroke-linecap="square"/>
<path d="M71 65.1604H77" stroke="white" stroke-width="3" stroke-linecap="square"/>
<path d="M58 91.1604H62" stroke="white" stroke-width="3" stroke-linecap="square"/>
</svg>
