<svg width="156" height="156" viewBox="0 0 156 156" fill="none" xmlns="http://www.w3.org/2000/svg">
<path opacity="0.5" fill-rule="evenodd" clip-rule="evenodd" d="M78.8424 1.06066L77.7817 0L76.7211 1.06066L59.6604 18.1213H63.9031L77.7817 4.24264L91.6604 18.1213H95.9031L78.8424 1.06066ZM137.782 60V64.2426L151.321 77.7817L137.782 91.3209V95.5635L154.503 78.8424L155.563 77.7817L154.503 76.7211L137.782 60ZM95.2239 138.121H90.9813L77.7817 151.321L64.5822 138.121H60.3396L76.7211 154.503L77.7817 155.563L78.8424 154.503L95.2239 138.121ZM17.7817 95.5635V91.3208L4.24264 77.7817L17.7817 64.2426V60L1.06066 76.7211L0 77.7817L1.06066 78.8424L17.7817 95.5635Z" fill="white"/>
<path d="M68 64.1604H70" stroke="white" stroke-width="3" stroke-linecap="square"/>
<path d="M76 64.1604H88" stroke="white" stroke-width="3" stroke-linecap="square"/>
<path d="M68 72.1604H70" stroke="white" stroke-width="3" stroke-linecap="square"/>
<path d="M76 72.1604H88" stroke="white" stroke-width="3" stroke-linecap="square"/>
<path d="M68 80.1604H78" stroke="white" stroke-width="3" stroke-linecap="square"/>
<path d="M68 88.1604H75" stroke="white" stroke-width="3" stroke-linecap="square"/>
<path d="M79 98.1604H60V54.1604H96V75.1604" stroke="white" stroke-width="3" stroke-linecap="square"/>
<path d="M91 98.1604C95.9706 98.1604 100 94.131 100 89.1604C100 84.1898 95.9706 80.1604 91 80.1604C86.0294 80.1604 82 84.1898 82 89.1604C82 94.131 86.0294 98.1604 91 98.1604Z" stroke="white" stroke-width="3" stroke-linecap="square"/>
<path d="M91 86.1604V92.1604" stroke="white" stroke-width="3" stroke-linecap="square"/>
<path d="M88 89.1604H94" stroke="white" stroke-width="3" stroke-linecap="square"/>
</svg>
