<svg width="160" height="160" viewBox="0 0 160 160" fill="none" xmlns="http://www.w3.org/2000/svg">
<path d="M157.149 80.0746L80.0747 3L3.00007 80.0746L80.0747 157.149L157.149 80.0746Z" stroke="#BE2AA4" stroke-width="3"/>
<path fill-rule="evenodd" clip-rule="evenodd" d="M20 20H140V140H20V20Z" fill="white"/>
<path d="M61.6366 61.818L58.7275 57.4543" stroke="#2866DC" stroke-width="3" stroke-linecap="round" stroke-linejoin="round"/>
<path d="M73.2729 61.818L76.182 57.4543" stroke="#2866DC" stroke-width="3" stroke-linecap="round" stroke-linejoin="round"/>
<path d="M50 73.4546V83.6364" stroke="#2866DC" stroke-width="3" stroke-miterlimit="10" stroke-linecap="square"/>
<path d="M84.9092 73.4546V83.6364" stroke="#2866DC" stroke-width="3" stroke-miterlimit="10" stroke-linecap="square"/>
<path d="M61.6362 92.3633V99.636" stroke="#2866DC" stroke-width="3" stroke-linecap="round" stroke-linejoin="round"/>
<path d="M73.2729 92.3633V99.636" stroke="#2866DC" stroke-width="3" stroke-miterlimit="10" stroke-linecap="square"/>
<path d="M55.8186 71.9998H79.0913" stroke="#2866DC" stroke-width="3" stroke-linecap="round" stroke-linejoin="round"/>
<path d="M79.0913 92.3635H55.8186V71.9999C55.8186 65.5737 61.0288 60.3635 67.455 60.3635C73.8811 60.3635 79.0913 65.5737 79.0913 71.9999V92.3635Z" stroke="#2866DC" stroke-width="3" stroke-linecap="round" stroke-linejoin="round"/>
<path d="M109.636 89.8385C108.364 92.606 107.757 93.8414 106.116 96.2869C103.834 99.7022 100.611 103.955 96.6193 103.992C93.0723 104.025 92.1608 101.727 87.3473 101.752C82.5339 101.777 81.5293 104.033 77.9822 104C73.991 103.965 70.9404 100.123 68.654 96.7058C62.2638 87.1544 61.5967 75.9468 65.5374 69.989C68.3378 65.7534 72.7576 63.2768 76.9117 63.2768C81.1414 63.2768 83.8002 65.5537 87.2988 65.5537C90.6927 65.5537 92.7581 63.2729 97.6511 63.2729C101.347 63.2729 105.265 65.2492 108.056 68.6644C98.9116 73.5885 100.397 86.4097 109.636 89.8385Z" fill="white"/>
<path d="M103.819 89.0139C102.864 91.0896 102.409 92.0161 101.179 93.8503C99.4666 96.4117 97.0491 99.6016 94.0557 99.6292C91.3953 99.6539 90.7117 97.9303 87.1015 97.9492C83.4913 97.9681 82.7379 99.6597 80.0775 99.635C77.084 99.6088 74.796 96.7274 73.0811 94.1645C68.2884 87.0009 67.7881 78.595 70.7437 74.1267C72.8441 70.95 76.159 69.0925 79.2746 69.0925C82.4469 69.0925 84.4411 70.8001 87.0651 70.8001C89.6106 70.8001 91.1597 69.0896 94.8295 69.0896C97.6018 69.0896 100.54 70.5718 102.633 73.1332C95.7749 76.8263 96.8891 86.4423 103.819 89.0139Z" stroke="#2866DC" stroke-width="3" stroke-linecap="round" stroke-linejoin="round"/>
<path d="M92.9973 62.8684C94.3863 61.0865 95.4394 58.5716 95.0569 56C92.7878 56.1556 90.1362 57.5985 88.5871 59.4793C87.182 61.1854 86.0198 63.7178 86.4707 66.1789C88.9464 66.256 91.5093 64.7782 92.9973 62.8684Z" stroke="#2866DC" stroke-width="3" stroke-miterlimit="10" stroke-linecap="square"/>
</svg>
