<svg width="160" height="160" viewBox="0 0 160 160" fill="none" xmlns="http://www.w3.org/2000/svg">
<path d="M157.149 80.0746L80.0747 3L3.00007 80.0746L80.0747 157.149L157.149 80.0746Z" stroke="#BE2AA4" stroke-width="3"/>
<path fill-rule="evenodd" clip-rule="evenodd" d="M20 20H140V140H20V20Z" fill="white"/>
<path d="M92.1421 92.1421L102 102" stroke="#2866DC" stroke-width="3" stroke-linecap="square"/>
<path fill-rule="evenodd" clip-rule="evenodd" d="M78 58C89.046 58 98 66.954 98 78C98 89.046 89.046 98 78 98C66.954 98 58 89.046 58 78C58 66.954 66.954 58 78 58Z" stroke="#2866DC" stroke-width="3" stroke-linecap="square"/>
<path fill-rule="evenodd" clip-rule="evenodd" d="M87 87H69V84.758C69 82.983 70.164 81.424 71.866 80.92C73.46 80.448 75.604 80 78 80C80.356 80 82.514 80.456 84.125 80.932C85.83 81.436 87 82.994 87 84.773V87Z" stroke="#2866DC" stroke-width="3" stroke-linecap="square"/>
<path fill-rule="evenodd" clip-rule="evenodd" d="M73 71C73 68.239 75.239 66 78 66C80.761 66 83 68.239 83 71C83 73.761 80.761 77 78 77C75.239 77 73 73.761 73 71Z" stroke="#2866DC" stroke-width="3" stroke-linecap="square"/>
</svg>
