<svg width="160" height="160" viewBox="0 0 160 160" fill="none" xmlns="http://www.w3.org/2000/svg">
<path d="M157.149 80.0746L80.0747 3L3.00007 80.0746L80.0747 157.149L157.149 80.0746Z" stroke="#BE2AA4" stroke-width="3"/>
<path fill-rule="evenodd" clip-rule="evenodd" d="M20 20H140V140H20V20Z" fill="white"/>
<path d="M64 72L72 64" stroke="#2866DC" stroke-width="3" stroke-linecap="round" stroke-linejoin="round"/>
<path d="M98 90L90 98" stroke="#2866DC" stroke-width="3" stroke-linecap="round" stroke-linejoin="round"/>
<path d="M81 89L90 98L100 100L98 90L89 81" stroke="#2866DC" stroke-width="3" stroke-linecap="round" stroke-linejoin="round"/>
<path d="M79 71L68 60L60 68L71 79" stroke="#2866DC" stroke-width="3" stroke-linecap="round" stroke-linejoin="round"/>
<path fill-rule="evenodd" clip-rule="evenodd" d="M70 100L60 90L90 60L100 70L70 100Z" stroke="#2866DC" stroke-width="3" stroke-linecap="round" stroke-linejoin="round"/>
<path d="M78 72L80 74" stroke="#2866DC" stroke-width="3" stroke-linecap="round" stroke-linejoin="round"/>
<path d="M84 66L88 70" stroke="#2866DC" stroke-width="3" stroke-linecap="round" stroke-linejoin="round"/>
<path d="M72 78L76 82" stroke="#2866DC" stroke-width="3" stroke-linecap="round" stroke-linejoin="round"/>
<path d="M66 84L68 86" stroke="#2866DC" stroke-width="3" stroke-linecap="round" stroke-linejoin="round"/>
</svg>
