<svg width="160" height="160" viewBox="0 0 160 160" fill="none" xmlns="http://www.w3.org/2000/svg">
<path d="M157.149 80.0746L80.0747 3L3.00007 80.0746L80.0747 157.149L157.149 80.0746Z" stroke="#BE2AA4" stroke-width="3"/>
<path fill-rule="evenodd" clip-rule="evenodd" d="M20 20H140V140H20V20Z" fill="white"/>
<path d="M96 65H102V94H75" stroke="#2866DC" stroke-width="3" stroke-linecap="round" stroke-linejoin="round"/>
<path d="M64 94H58V65H79" stroke="#2866DC" stroke-width="3" stroke-linecap="round" stroke-linejoin="round"/>
<path fill-rule="evenodd" clip-rule="evenodd" d="M95 79H80C79.448 79 79 78.552 79 78V60C79 59.448 79.448 59 80 59H95C95.552 59 96 59.448 96 60V78C96 78.552 95.552 79 95 79Z" stroke="#2866DC" stroke-width="3" stroke-linecap="round" stroke-linejoin="round"/>
<path fill-rule="evenodd" clip-rule="evenodd" d="M74 101H65C64.448 101 64 100.552 64 100V86C64 85.448 64.448 85 65 85H74C74.552 85 75 85.448 75 86V100C75 100.552 74.552 101 74 101Z" stroke="#2866DC" stroke-width="3" stroke-linecap="round" stroke-linejoin="round"/>
<path d="M79 99H85" stroke="#2866DC" stroke-width="3" stroke-linecap="round" stroke-linejoin="round"/>
<path d="M69 96H70" stroke="#2866DC" stroke-width="3" stroke-linecap="round" stroke-linejoin="round"/>
<path d="M86 74H89" stroke="#2866DC" stroke-width="3" stroke-linecap="round" stroke-linejoin="round"/>
</svg>
